<svg xmlns="http://www.w3.org/2000/svg" xmlns:xlink="http://www.w3.org/1999/xlink" height="800" width="1200" viewBox="-27.750945 -13.120125 240.50819 78.72075"><defs><linearGradient id="a" y2=".4235" x2=".189" y1=".358" x1="-.0371"><stop offset="0%" stop-color="#FFD521"/><stop offset="5%" stop-color="#FFD521"/><stop offset="50.1119%" stop-color="#F50000"/><stop offset="95%" stop-color="#B900B4"/><stop offset="95.0079%" stop-color="#B900B4"/><stop offset="100%" stop-color="#B900B4"/></linearGradient><linearGradient gradientUnits="userSpaceOnUse" gradientTransform="scale(1.87756 .5326)" y2="41.7837" x2="19.1168" y1="35.3285" x1="-3.1616" id="b" xlink:href="#a"/></defs><path d="M10.4533 52.328c-3.788-1.5853-7.9533-6.0587-9.268-11.6853C-.4827 33.52 6.452 30.512 7.0187 31.4933c.6666 1.164-1.2467 1.5547-1.6374 5.248-.5026 4.776 1.712 10.112 4.5067 12.4534.5213.428.496-.176.496-1.2894 0-2.008-.112-19.9733-.112-23.724 0-5.0773-.208-6.676-.592-8.2546-.3773-1.6054-.988-2.688-.528-3.1094.5213-.4653 2.736.6427 4.02 2.4347 1.536 2.1467 2.0773 4.7267 2.1773 7.5267.1134 3.372.1067 8.7333.1134 11.7853 0 2.8067.044 11.012-.044 15.952-.0254 1.208-3.3854 2.4733-4.9654 1.812m174.644-26.6547c-.5413 0-.7986-.5666-1.0066-1.5173-.7174-3.316-1.472-4.064-2.448-4.064-1.088 0-2.064 1.6413-2.3214 4.9267-.1946 2.58-.164 7.3373.088 12.0693.0507.9693-.2146 1.9307-2.82 2.8813-1.1253.4027-2.756 1.0067-3.5666-.956-2.2974-5.532-3.1907-9.936-3.4054-11.7173-.005-.0933-.1186-.1067-.1386.1067-.1307 1.4293-.4334 4.028-.4707 9.4906-.0133 1.056-.2333 1.9694-1.416 2.712-.7613.4774-3.0773 1.3334-3.9147.32-.7173-.8306-1.5533-3.0586-2.428-5.7013-.7053-2.152-1.196-3.612-1.196-3.612s.005 5.8027.0187 8.0053c0 .8307-.5666 1.1067-.736 1.1574-.7746.2266-2.304.5973-2.9453.5973-.7987 0-.988-.4467-.988-1.0947 0-.0813-.132-7.632-.132-12.912v-.7426c-.4347-2.4294-1.868-5.7267-3.4227-5.7267-1.5546 0-2.2906 1.3787-2.2906 7.6707 0 3.6693.1133 5.2666.164 7.9226.0307 1.5294.0933 2.7054.088 2.976-.0133.812-1.4294 1.228-2.084 1.3787-.66.1573-1.2334.208-1.6854.1893-.6293-.0386-1.076-.4533-1.076-1.0333v-.88c-.812 1.2827-2.128 2.1773-3.008 2.4347-2.3533.6986-4.8146.076-6.6706-2.516-1.472-2.0654-2.36-4.3987-2.7054-7.7534-.2586-2.4546-.176-4.94.2827-7.0413-.5533-2.372-1.5733-3.348-2.6867-3.348-1.624 0-2.7933 2.644-2.6613 7.2187.0947 3.0066.692 5.1146 1.352 8.1733.284 1.3027.0507 1.9813-.5213 2.6427-.5227.592-1.6427.9-3.2467.5293-1.14-.2707-2.7813-.56-4.2733-.7813 0 0 .088.36.164.9946.384 3.3294-3.2347 3.0587-4.3867 1.9947-.692-.6347-1.164-1.384-1.34-2.7307-.2827-2.14 1.46-3.1466 1.46-3.1466-.572-2.6174-1.9693-6.04-3.4227-8.5134-.7746-1.328-1.3666-2.304-2.1333-3.348-.007.384-.007.7747-.007 1.1574-.0133 5.5066.056 9.8413.088 11.4026.032 1.5294.0947 2.6747.0947 2.9454-.0133.592-.3587.824-1.0893 1.1013-.6414.2507-1.4027.4333-2.1894.4973-.988.0747-1.592-.4533-1.5733-1.076V38.12c-.8173 1.2827-2.1333 2.1773-3.0013 2.4347-2.36.6986-4.82.076-6.676-2.516-1.4667-2.0654-2.436-4.9534-2.7134-7.7214-.2506-2.5933-.2066-4.7826.1454-6.6333-.3774-1.8493-1.4534-3.788-2.6734-3.788-1.5546 0-2.4426 1.3787-2.4426 7.6707 0 3.6693.1133 5.2666.1706 7.9226.0307 1.5294.088 2.7054.0814 2.976-.0067.812-1.4214 1.228-2.0827 1.3787-.6853.1627-1.284.2133-1.7373.1893-.604-.0506-1.0254-.5853-1.0254-.9946V38.12c-.8173 1.2827-2.1333 2.1773-3.008 2.4347-2.3533.6986-4.7946.0626-6.664-2.516-1.22-1.6814-2.208-3.5494-2.7173-7.6907-.1387-1.196-.208-2.3147-.2013-3.36-.4854-2.9693-2.6307-6.3933-4.38-6.3933-1.032 0-2.0134 1.9893-2.0134 6.236 0 5.6506.352 13.7053.4147 14.4853 0 0 2.2147.0387 2.6493.044 1.1014.0067 2.108-.0187 3.5747.0573.7427.0374 1.4533 2.6867.6853 3.02-.34.1454-2.7813.2774-3.7506.296-.8174.0187-3.0774.188-3.0774.188s.2027 5.3427.2467 5.9027c.0373.4787-.5667.7173-.9187.8627-.8506.364-1.612.5346-2.5053.7173-1.252.2573-1.812.0053-1.9187-1.044-.164-1.5933-.252-6.2627-.252-6.2627-.9186 0-4.0333.184-4.9466.184-.848 0-1.768-3.6506-.5907-3.6946 1.3533-.0507 3.7-.1014 5.26-.144 0 0-.0693-8.188-.0693-10.7107v-.78c-.8614-4.4733-3.876-6.8907-3.876-6.8907.648 2.964-.6734 5.1854-3.064 7.06-.8814.6987-2.6174 2.0147-4.5627 3.4427 0 0 1.1267 1.1133 2.1267 3.3413.7053 1.58.7373 3.3974-1 3.7947-2.8694.66-5.2294-1.448-5.94-3.7-.5414-1.7373-.2574-3.0333.8173-4.3733l.2453-.3027c-.6413-1.2453-1.5346-2.9253-2.284-4.228-2.0946-3.6187-3.6746-6.476-4.864-6.476-.956 0-.944 2.9013-.944 5.62 0 2.3413.176 5.8707.3147 9.52.044 1.2027-.56 1.8947-1.572 2.5173-.6173.3774-1.9267 1.12-2.688 1.12-1.132 0-4.4173-.1506-7.5187-9.1173-.3906-1.1333-1.1586-3.1907-1.1586-3.1907l.0693 10.7854c0 .252-.132.4906-.44.6613-.5227.2827-1.9253.8613-3.1587.8613-.5986 0-.8946-.2773-.8946-.824l-.1-16.864c0-1.284.0306-2.7813.1573-3.436.1253-.6546.3333-1.1893.5853-1.5093.252-.3093.5467-.548 1.0254-.6547.4466-.0946 2.9066-.4026 3.0333.5347.1573 1.1267.1627 2.34 1.4533 6.8893 2.0134 7.0734 4.632 10.5214 5.8654 11.7494.22.2133.4653.2266.452-.1267-.056-1.5533-.2387-5.424-.364-8.7147-.3334-8.816 1.264-10.4453 3.5613-10.4453 1.7493 0 4.216 1.7427 6.8653 6.1467 1.6547 2.7506 3.2534 5.4373 4.4107 7.3813.7933-.7413 1.6987-1.5413 2.5987-2.3973 2.096-1.9814 2.7813-3.8694 2.3226-5.6574-.3466-1.3706-1.6613-2.78-3.996-1.4093-.68.3973-.9693.7053-1.6546 1.1587-.3654.2453-.932.3146-1.2654.0626-.8813-.6613-1.3786-1.4973-1.668-2.536-.2706-1.0133.7427-1.5413 1.7934-2.0066.9-.4094 2.8386-.768 4.0773-.812 4.8267-.164 8.6907 2.328 11.3773 8.7466.4854-5.544 2.5294-8.684 6.0854-8.684 2.384 0 4.7693 3.0774 5.8146 6.104.2947-1.2333.7414-2.3026 1.3147-3.216 2.744-4.3413 8.0667-3.4106 10.7347.2774.8306 1.1453.9573 1.5546.9573 1.5546.3893-3.4813 3.196-4.7066 4.8013-4.7066 1.8054 0 3.656.8546 4.9574 3.788.1573-.3214.3213-.624.5106-.9134 2.7374-4.3413 8.06-3.4106 10.7347.2774.12.1826.2333.3333.3267.4786l.0827-2.2906s-1.5294-1.3974-2.4667-2.2587c-4.1213-3.7827-7.256-6.652-7.488-9.9867-.2893-4.26 3.1587-5.84 5.776-6.0466 2.7693-.2214 5.148 1.308 6.6067 3.46 1.284 1.888 2.128 5.9466 2.0653 9.9613-.0253 1.6107-.064 3.6493-.1013 5.8453 1.4533 1.6734 3.0893 3.8014 4.588 6.292 1.6413 2.7067 3.3906 6.3507 4.284 9.188 0 0 1.5293-.0133 3.1533.088.5227.032.6733-.076.572-.4533-.1133-.4587-2.0507-7.9413-.2827-12.9253 1.2147-3.4094 3.9387-4.5107 5.5627-4.5107 1.8933 0 3.7067 1.4347 4.6747 3.5613.12-.2333.24-.4653.3786-.68 2.7374-4.3413 8.0414-3.404 10.7347.2774.6107.836.9507 1.5546.9507 1.5546.5786-3.6066 3.3853-4.72 4.9893-4.72 1.68 0 3.2653.6854 4.556 3.732.0507-1.3413.132-2.436.2707-2.7813.0813-.2147.56-.4787.9-.6107 1.5346-.5666 3.096-.296 3.668-.176.4026.0814.7173.396.756 1.2267.112 2.1773.0427 5.8333.704 8.5573 1.1133 4.556 2.1453 6.324 2.636 7.1987.272.492.5853.5733.592.0573.0187-1.0506.076-4.1346.5093-8.288.3093-3.0453.7307-4.8506 1.0573-5.424.9187-1.6293 2.064-1.7053 2.9894-1.7053.592 0 1.8253.164 1.7173 1.2027-.056.5026.0387 3.6306 1.1267 8.1226.7173 2.9387 1.9066 5.588 2.3346 6.5574.164.3586.2334.0813.2334.0253-.0947-2.02-.296-8.6333.5213-12.2453 1.1213-4.9027 4.348-5.4494 5.4747-5.4494 2.3973 0 4.368 1.8254 5.028 6.632.164 1.1587-.076 2.052-.7867 2.052m-100.612 2.9694c-.132-2.5414-.6293-4.6694-1.4213-6.2107-1.448-2.8-4.2974-3.6813-5.5507.352-.912 2.9133-.604 6.8907-.22 9.0373.5533 3.184 1.9573 5.436 4.1467 5.2294 2.24-.2214 3.3346-3.1094 3.0453-8.408m21.9549-.0374c-.1253-2.3973-.748-4.8133-1.428-6.1733-1.4027-2.8187-4.336-3.7-5.5507.352-.8293 2.776-.6346 6.356-.22 8.6093.536 2.932 1.8254 5.6574 4.148 5.6574 2.2587 0 3.372-2.48 3.0507-8.4454m.5733-16.3853c-.032-4.3867-.7173-8.2253-2.1906-9.3453-2.1014-1.5854-4.9267-.3894-4.3414 2.8066.516 2.832 2.964 5.72 6.5387 9.2507 0 0 .012-.8053-.007-2.712m37.907 16.36c-.1267-2.6373-.712-4.6947-1.4347-6.148-1.404-2.8187-4.3106-3.6933-5.5506.352-.6734 2.2093-.7054 5.8973-.22 8.9733.4906 3.1347 1.8693 5.5 4.1466 5.2934 2.252-.2147 3.304-3.1094 3.0587-8.4707" fill="url(#b)" transform="matrix(1 0 0 -1 -.927 52.51)"/></svg>