<svg width="496" height="149" viewBox="0 0 496 149" fill="none" xmlns="http://www.w3.org/2000/svg">
<g clip-path="url(#clip0_229_197)">
<g clip-path="url(#clip1_229_197)">
<path d="M74.3813 0C33.3025 0 0 33.3554 0 74.5004C0 115.647 33.3025 149 74.3813 149C115.465 149 148.763 115.647 148.763 74.5004C148.763 33.358 115.465 0.00355855 74.3804 0.00355855L74.3813 0V0ZM108.492 107.451C107.16 109.64 104.3 110.333 102.115 108.99C84.6508 98.3055 62.6658 95.8857 36.7745 101.811C34.2795 102.38 31.7926 100.814 31.2241 98.3144C30.653 95.8145 32.21 93.3235 34.7112 92.7541C63.0451 86.2704 87.3492 89.0621 106.955 101.063C109.14 102.407 109.833 105.263 108.492 107.451V107.451ZM117.596 87.1654C115.918 89.8984 112.347 90.7613 109.62 89.0799C89.6265 76.7708 59.1494 73.206 35.5008 80.3961C32.4338 81.324 29.1945 79.5928 28.2637 76.5262C27.34 73.4542 29.0693 70.2159 32.131 69.2818C59.1441 61.0722 92.7264 65.0489 115.687 79.1809C118.413 80.8623 119.275 84.4386 117.596 87.1663V87.1654ZM118.378 66.0417C94.4051 51.7799 54.8531 50.4685 31.9649 57.4264C28.2895 58.5429 24.4027 56.4647 23.2888 52.7834C22.175 49.1003 24.2481 45.2099 27.9262 44.0907C54.2003 36.1017 97.878 37.6452 125.478 54.0565C128.791 56.0217 129.875 60.2982 127.912 63.605C125.958 66.9162 121.677 68.0078 118.381 66.0417H118.378ZM202.367 68.7747C189.523 65.7072 187.241 63.5543 187.241 59.0304C187.241 54.7566 191.255 51.8804 197.233 51.8804C203.024 51.8804 208.762 54.0645 214.784 58.5607C214.962 58.6968 215.193 58.7511 215.415 58.7155C215.646 58.6817 215.841 58.5581 215.974 58.3721L222.245 49.5184C222.503 49.1536 222.432 48.651 222.085 48.3725C214.917 42.6139 206.852 39.8142 197.42 39.8142C183.555 39.8142 173.864 48.1492 173.864 60.0749C173.864 72.8635 182.222 77.3918 196.665 80.8872C208.949 83.7225 211.027 86.0978 211.027 90.3432C211.027 95.0494 206.835 97.9763 200.084 97.9763C192.588 97.9763 186.468 95.4409 179.629 89.5158C179.46 89.3646 179.229 89.3023 179.016 89.3112C178.785 89.329 178.581 89.4358 178.439 89.6048L171.404 97.9852C171.111 98.3411 171.146 98.8571 171.484 99.1596C179.442 106.277 189.23 110.031 199.8 110.031C214.74 110.031 224.395 101.855 224.395 89.1956C224.421 78.5136 218.035 72.5975 202.394 68.7863L202.367 68.7747V68.7747ZM258.2 56.0884C251.725 56.0884 246.413 58.6435 242.025 63.879V57.986C242.025 57.5207 241.652 57.1417 241.191 57.1417H229.688C229.226 57.1417 228.853 57.5207 228.853 57.986V123.465C228.853 123.927 229.226 124.31 229.688 124.31H241.191C241.652 124.31 242.025 123.927 242.025 123.465V102.798C246.413 107.718 251.725 110.129 258.2 110.129C270.235 110.129 282.421 100.85 282.421 83.1113C282.439 65.3692 270.253 56.0875 258.209 56.0875L258.2 56.0884ZM269.045 83.1113C269.045 92.1403 263.494 98.4478 255.535 98.4478C247.674 98.4478 241.741 91.8556 241.741 83.1113C241.741 74.3661 247.674 67.7756 255.535 67.7756C263.36 67.7747 269.045 74.2229 269.045 83.1104V83.1113ZM313.642 56.0884C298.143 56.0884 286.001 68.0416 286.001 83.3043C286.001 98.4034 298.063 110.227 313.455 110.227C329.008 110.227 341.185 98.3144 341.185 83.1113C341.185 67.9598 329.088 56.0902 313.642 56.0902V56.0884V56.0884ZM313.642 98.5368C305.399 98.5368 299.182 91.9001 299.182 83.1068C299.182 74.2736 305.186 67.8637 313.455 67.8637C321.751 67.8637 328.004 74.4978 328.004 83.2999C328.004 92.1314 321.964 98.5368 313.642 98.5368V98.5368ZM374.28 57.1417H361.623V44.1832C361.623 43.7188 361.25 43.3398 360.788 43.3398H349.286C348.824 43.3398 348.442 43.7188 348.442 44.1832V57.1417H342.917C342.455 57.1417 342.082 57.5207 342.082 57.986V67.8851C342.082 68.3495 342.455 68.7293 342.917 68.7293H348.442V94.3466C348.442 104.693 353.585 109.942 363.737 109.942C367.858 109.942 371.278 109.088 374.502 107.255C374.768 107.113 374.928 106.828 374.928 106.526V97.0956C374.928 96.8109 374.777 96.5351 374.529 96.3839C374.28 96.2237 373.969 96.2148 373.711 96.3483C371.5 97.4603 369.359 97.9763 366.961 97.9763C363.275 97.9763 361.623 96.2949 361.623 92.5406V68.7338H374.28C374.742 68.7338 375.115 68.3548 375.115 67.8895V57.9913C375.132 57.5261 374.759 57.1471 374.289 57.1471L374.28 57.1417V57.1417ZM418.371 57.1925V55.6009C418.371 50.9187 420.165 48.8307 424.179 48.8307C426.578 48.8307 428.505 49.3075 430.663 50.0282C430.93 50.1118 431.205 50.07 431.418 49.9107C431.64 49.7515 431.765 49.4962 431.765 49.2257V39.5197C431.765 39.1487 431.534 38.8204 431.17 38.711C428.896 38.0322 425.982 37.3356 421.612 37.3356C410.998 37.3356 405.376 43.3265 405.376 54.6543V57.0919H399.851C399.389 57.0919 399.008 57.4709 399.008 57.9353V67.8851C399.008 68.3495 399.389 68.7293 399.851 68.7293H405.376V108.234C405.376 108.705 405.758 109.079 406.22 109.079H417.713C418.184 109.079 418.557 108.705 418.557 108.234V68.732H429.295L445.745 108.234C443.88 112.38 442.041 113.207 439.537 113.207C437.511 113.207 435.371 112.602 433.195 111.401C432.99 111.294 432.742 111.276 432.529 111.339C432.307 111.419 432.12 111.579 432.031 111.792L428.132 120.36C427.945 120.769 428.105 121.24 428.496 121.454C432.564 123.66 436.232 124.603 440.771 124.603C449.262 124.603 453.961 120.636 458.091 109.978L478.04 58.3454C478.147 58.0857 478.111 57.7921 477.952 57.5616C477.801 57.333 477.543 57.1951 477.268 57.1951H465.295C464.93 57.1951 464.611 57.4238 464.495 57.7609L452.229 92.8431L438.799 57.7378C438.675 57.4113 438.364 57.1951 438.018 57.1951H418.371V57.1925V57.1925ZM392.808 57.1417H381.306C380.844 57.1417 380.462 57.5207 380.462 57.986V108.234C380.462 108.705 380.844 109.079 381.306 109.079H392.808C393.27 109.079 393.652 108.705 393.652 108.234V57.9896C393.652 57.5243 393.279 57.1453 392.808 57.1453V57.1417ZM387.123 34.261C382.567 34.261 378.872 37.9548 378.872 42.5178C378.872 47.0834 382.567 50.7817 387.123 50.7817C391.68 50.7817 395.366 47.0834 395.366 42.5178C395.366 37.9557 391.671 34.261 387.123 34.261ZM487.864 73.2985C483.316 73.2985 479.772 69.6377 479.772 65.1921C479.772 60.7466 483.361 57.0439 487.908 57.0439C492.456 57.0439 496 60.7039 496 65.1459C496 69.5914 492.412 73.2985 487.864 73.2985ZM487.908 57.8499C483.761 57.8499 480.625 61.1505 480.625 65.1921C480.625 69.232 483.743 72.4881 487.864 72.4881C492.012 72.4881 495.147 69.1902 495.147 65.1459C495.147 61.106 492.03 57.8499 487.908 57.8499V57.8499ZM489.703 65.9795L491.994 69.1893H490.058L487.997 66.2446H486.23V69.1893H484.613V60.6807H488.397C490.378 60.6807 491.674 61.6923 491.674 63.395C491.683 64.79 490.875 65.6423 489.711 65.9795H489.703ZM488.335 62.1406H486.23V64.8318H488.335C489.383 64.8318 490.013 64.3167 490.013 63.4849C490.013 62.6095 489.383 62.1406 488.335 62.1406V62.1406Z" fill="#1ED760"/>
</g>
</g>
<defs>
<clipPath id="clip0_229_197">
<rect width="496" height="149" fill="white"/>
</clipPath>
<clipPath id="clip1_229_197">
<rect width="496" height="149" fill="white"/>
</clipPath>
</defs>
</svg>
